<svg xmlns="http://www.w3.org/2000/svg" width="666.7" height="666.7" viewBox="0 0 17639 17639" shape-rendering="geometricPrecision" text-rendering="geometricPrecision" image-rendering="optimizeQuality" fill-rule="evenodd" clip-rule="evenodd"><defs/><g id="Layer_x0020_1"><path fill="#affc00" d="M1082 1129h15476v15381H1082z"/><path fill="#072600" d="M2379 2418h12882v12803H2379z"/><g id="_1927349920"><path class="fil2" d="M5365 11246l-799 1 1-4913c89-2 337-10 563-2 1413 52 1610 1595 1546 2829-44 858-311 2026-1311 2085zm-107-6039l-1916 1c-66 0-104 21-107 116l20 4929-22 2065c2 63 44 53 94 58l1149-2 395-5c468-7 876 19 1331-135 2930-991 2602-7056-944-7027z" fill="#affc00"/><path class="fil2" d="M9761 7001H8326l1089 5373 1303-3 701-3699h50l559 3700h1295l1203-5371h-1167l-560 3746c-19 88-82 112-101 5l-528-3751h-1264l-582 3749c-15 94-79 104-92-5l-471-3744z" fill="#affc00"/></g></g></svg>