<svg xmlns="http://www.w3.org/2000/svg" style="-ms-transform:rotate(360deg);-webkit-transform:rotate(360deg)" transform="rotate(360)" viewBox="0 0 256 249"><defs/><defs><linearGradient x1="-388.1%" y1="-113.7%" x2="237.7%" y2="370.7%" id="a"><stop stop-color="#C06FBB" offset="0%"/><stop stop-color="#6E4D9B" offset="100%"/></linearGradient><linearGradient x1="72.9%" y1="79.5%" x2="-97.1%" y2="-119.5%" id="b"><stop stop-color="#6E4D9B" offset="0%"/><stop stop-color="#77327A" offset="14%"/><stop stop-color="#B31777" offset="29%"/><stop stop-color="#CD0F7E" offset="84%"/><stop stop-color="#ED2C89" offset="100%"/></linearGradient><linearGradient x1="-232.2%" y1="-693.6%" x2="250.8%" y2="101.7%" id="c"><stop stop-color="#C06FBB" offset="0%"/><stop stop-color="#6E4D9B" offset="100%"/></linearGradient><linearGradient x1="-821.2%" y1="-466.9%" x2="102%" y2="287.3%" id="d"><stop stop-color="#C06FBB" offset="0%"/><stop stop-color="#6E4D9B" offset="100%"/></linearGradient><linearGradient x1="-140.1%" y1="-230.9%" x2="418.5%" y2="262%" id="e"><stop stop-color="#C06FBB" offset="0%"/><stop stop-color="#6E4D9B" offset="100%"/></linearGradient><linearGradient x1="191.1%" y1="225.1%" x2="20.4%" y2="24.6%" id="f"><stop stop-color="#6E4D9B" offset="0%"/><stop stop-color="#77327A" offset="14%"/><stop stop-color="#B31777" offset="29%"/><stop stop-color="#CD0F7E" offset="84%"/><stop stop-color="#ED2C89" offset="100%"/></linearGradient><linearGradient x1="-388.1%" y1="-138.7%" x2="237.7%" y2="445.4%" id="g"><stop stop-color="#C06FBB" offset="0%"/><stop stop-color="#6E4D9B" offset="100%"/></linearGradient><linearGradient x1="11.5%" y1="89.7%" x2="89.8%" y2="11.6%" id="h"><stop stop-color="#6E4D9B" offset="0%"/><stop stop-color="#77327A" offset="14%"/><stop stop-color="#B31777" offset="53%"/><stop stop-color="#CD0F7E" offset="79%"/><stop stop-color="#ED2C89" offset="100%"/></linearGradient></defs><path d="M167.9 46.4l-23.7 15.8-24.4-36.6 23.7-15.8 24.4 36.6z" fill="url(#a)"/><path d="M187.1 156.2l40.5 60.6-48.2 32.2-40.5-60.6-7-10.6 48.2-32.2 7 10.6z" fill="url(#b)"/><path d="M126.4 196.7l9 13.4-36.8 24.4-16-23.9 8-5.3 28.8-19.2 7 10.6z" fill="url(#c)"/><path d="M207.2 127.5l10.3-6.8 16 23.9-23.8 15.8-8.9-13.3 13.4-9-7-10.6zm-6.4 19.6l-7-10.6 13.4-9 7 10.6-13.4 9z" fill="url(#d)"/><path d="M41.1 131l-8 5.3L8.7 99.8l36.7-24.5 17 25.6L33.9 120 62.5 101l7.3 11-28.7 19z" fill="url(#e)"/><path d="M130.5 71.3l-48.2 32.2-7.3-11-40-60L83 .3l40 60 7.4 11z" fill="url(#f)"/><path d="M157.6 53.2l-13.4 9-7.3-11-17.1-25.6 23.7-15.8 24.4 36.6-10.3 6.8z" fill="url(#g)"/><path d="M97.8 215.8l-7.1-10.5 28.7-19.2 7 10.6-28.7 19.1z" fill="#714896"/><path d="M200.8 147l-7-10.5 13.4-9 7 10.6-13.4 9z" fill="#6F4795"/><path d="M41.1 131l-7.3-11L62.5 101l7.3 11-28.7 19z" fill="#88519F"/><path d="M144.2 62.2l-7.3-11 13.4-8.9 7.3 11-13.4 8.9z" fill="#85509E"/><path d="M187.1 156.2L139 188.4l-7-10.6 48.2-32.2 7 10.6z" fill="#8D166A"/><path d="M123.2 60.4l7.3 11-48.2 32L75 92.7l48.2-32.2z" fill="#A70D6F"/><path d="M27.4 51.7l9.1 13.6-13.6 9-9-13.6 13.5-9z" fill="#9E61AD"/><path d="M76.6 215l9 13.7-13.6 9.1-9-13.6 13.6-9.1z" fill="#8053A3"/><path d="M40.7 228.8l-40-60.3L214.2 26l41.8 59.3L40.7 228.8z" fill="url(#h)"/></svg>