<svg xmlns="http://www.w3.org/2000/svg" xmlns:xlink="http://www.w3.org/1999/xlink" viewBox="0 0 152 152"><defs/><defs><radialGradient cx="33.9" cy="32.4" fx="33.9" fy="32.4" r="120.5" id="f" gradientUnits="userSpaceOnUse"><stop stop-color="#FFF" stop-opacity=".1" offset="0%"/><stop stop-color="#FFF" stop-opacity="0" offset="100%"/></radialGradient><radialGradient cx="32.7" cy="32.9" fx="32.7" fy="32.9" r="47.7" id="g" gradientTransform="scale(.76363 1.30954)" gradientUnits="userSpaceOnUse"><stop stop-color="#1A237E" stop-opacity=".2" offset="0%"/><stop stop-color="#1A237E" stop-opacity="0" offset="100%"/></radialGradient><radialGradient cx="126.4" cy="72.8" fx="126.4" fy="72.8" r="54" id="h" gradientTransform="scale(.75614 1.3225)" gradientUnits="userSpaceOnUse"><stop stop-color="#1A237E" stop-opacity=".1" offset="0%"/><stop stop-color="#1A237E" stop-opacity="0" offset="100%"/></radialGradient><radialGradient cx="67.4" cy="59" fx="67.4" fy="59" r="37.7" id="i" gradientTransform="scale(1.21661 .82196)" gradientUnits="userSpaceOnUse"><stop stop-color="#1A237E" stop-opacity=".1" offset="0%"/><stop stop-color="#1A237E" stop-opacity="0" offset="100%"/></radialGradient><mask id="j" maskContentUnits="userSpaceOnUse" maskUnits="objectBoundingBox" x="0" y="0" width="120" height="120" fill="#fff"><use xlink:href="#a" width="100%" height="100%"/></mask><mask id="k" maskContentUnits="userSpaceOnUse" maskUnits="objectBoundingBox" x="0" y="0" width="56" height="56" fill="#fff"><use xlink:href="#b" width="100%" height="100%"/></mask><mask id="l" maskContentUnits="userSpaceOnUse" maskUnits="objectBoundingBox" x="0" y="0" width="40" height="40" fill="#fff"><use xlink:href="#c" width="100%" height="100%"/></mask><circle id="b" cx="76" cy="76" r="28"/><circle id="c" cx="76" cy="76" r="20"/><rect id="d" x="0" y="0" width="152" height="152" rx="12"/><path d="M76 136a60 60 0 100-120 60 60 0 000 120z" id="a"/></defs><g fill="none" fill-rule="evenodd"><mask id="e" fill="#fff"><use xlink:href="#d" width="100%" height="100%"/></mask><use fill="#2879ff" xlink:href="#d" width="100%" height="100%"/><g mask="url(#e)" stroke="#fff" stroke-opacity=".2" stroke-width=".5"><g transform="translate(-20 -20)"><path d="M0 0l192 192M192 0L0 192M123.8 0v192M68.3 0v192M192 123.8H0M192 68.3H0"/><circle cx="96" cy="96" r="39"/><path d="M0 96h192M96 0v192"/></g></g><circle fill="url(#f)" cx="76" cy="76" r="60"/><path d="M140 0H12A12 12 0 000 12v1A12 12 0 0112 1h128a12 12 0 0112 12v-1a12 12 0 00-12-12z" fill="#fff" opacity=".2"/><path d="M140 151H12a12 12 0 01-12-12v1a12 12 0 0012 12h128a12 12 0 0012-12v-1a12 12 0 01-12 12z" fill="#000" opacity=".1"/><path d="M49.5 67.5L25 43l26.7 45.8a27.2 27.2 0 01-2.2-21.3z" fill="url(#g)"/><path d="M82 103l-9 33.5L99.6 90A27.4 27.4 0 0182 103z" fill="url(#h)"/><path d="M96.1 57.4l33.4-8.9H76a27.4 27.4 0 1020.2 9z" fill="url(#i)"/><use stroke="#fff" mask="url(#j)" stroke-width="4" xlink:href="#a" width="100%" height="100%"/><use stroke="#fff" mask="url(#k)" stroke-width="4" xlink:href="#b" width="100%" height="100%"/><use stroke="#fff" mask="url(#l)" stroke-width="4" xlink:href="#c" width="100%" height="100%"/><path fill="#fff" d="M76 48h53v2H76zM100.3 90l-26.5 45.9-1.7-1L98.6 89zM51.8 90L25.3 44l1.7-1 26.5 46z"/></g></svg>