<svg width="512" height="239" xmlns="http://www.w3.org/2000/svg" preserveAspectRatio="xMidYMid"><path d="M130.9 0h24v193h-24v-17.7a76.1 76.1 0 01-53.4 22.1 77.2 77.2 0 01-75.7-66.8c-1.4-16.6-.7-17.8 0-23.6C8 59.6 46.3 40.2 77.5 40.2c15 0 28.5 4.1 40 11L114 73.5A56 56 0 0077.5 60C46.3 60 21 86 21 118.2c0 29.7 22.9 59.4 56.5 59.4 22.2 0 44.3-14 53.4-36.8V0M237.3 40.6c-31.3 0-71.8 18.8-76 65.5-.5 5.7-1 11.9 0 23a77.4 77.4 0 0076 65.4c41 0 77.3-32.7 77.3-77.5a76.2 76.2 0 00-77.3-76.4zm0 134.5c-33.7 0-56.7-29-56.7-58 0-31.6 25.4-57 56.7-57 35 0 58 29 58 57a58 58 0 01-58 58z" fill="#353535"/><path d="M274 17c0 2.5-1.4 2.5-2.6 3.3h-65.8c0-.8-1.4-.8-1.4-3.3 0-1.6 1.4-1.6 2.6-2.5h65.8c0 .9 1.3.9 1.3 2.5" fill="#8C8C8C"/><path d="M328.3 6.4h19.3v29h-19.3v-29zM347.6 183.3c1.3 23-28.4 54.8-28.4 54.8l-12.5-17.6a53.5 53.5 0 0021.8-38.4L328.3 45h19.3v138.3M434.8 40.6c-31.4 0-71.8 18.8-76 65.5-.6 5.7-1.1 11.9 0 23a77.4 77.4 0 0076 65.4c41 0 77.2-32.7 77.2-77.5a76.2 76.2 0 00-77.2-76.4zm0 134.5c-33.8 0-56.8-29-56.8-58 0-31.6 25.4-57 56.8-57 35 0 57.9 29 57.9 57a58 58 0 01-58 58z" fill="#353535"/><path d="M468.4 17c0 2.5-1.3 2.5-2.5 3.3h-65.8c0-.8-1.3-.8-1.3-3.3 0-1.6 1.3-1.6 2.5-2.5h65.8c0 .9 1.3.9 1.3 2.5" fill="#8C8C8C"/></svg>