<svg xmlns="http://www.w3.org/2000/svg" preserveAspectRatio="xMidYMid" viewBox="0 0 512 512"><defs/><path d="M130.9 139h24v193h-24v-17.8a76.1 76.1 0 01-53.4 22.2 77.2 77.2 0 01-75.7-66.8c-1.4-16.7-.7-17.9 0-23.7 6.2-47.3 44.5-66.7 75.7-66.7a77 77 0 0140 11l-3.5 22.3A56 56 0 0077.5 199C46.3 199 21 225 21 257.2c0 29.7 22.9 59.4 56.5 59.4 22.2 0 44.3-14 53.4-36.9V139m106.4 40.6c-31.3 0-71.8 18.8-76 65.5-.5 5.7-1 12 0 23a77.4 77.4 0 0076 65.4c41 0 77.3-32.7 77.3-77.5a76.2 76.2 0 00-77.3-76.4zm0 134.5c-33.7 0-56.7-29-56.7-58 0-31.6 25.4-57 56.7-57 35 0 58 29 58 57a58 58 0 01-58 58z" fill="#353535"/><path d="M274 156c0 2.4-1.4 2.4-2.6 3.2h-65.8c0-.7-1.4-.7-1.4-3.2 0-1.7 1.4-1.7 2.6-2.6h65.8c0 1 1.3 1 1.3 2.5" fill="#8c8c8c"/><path d="M328.3 145.3h19.3v29h-19.3zm19.3 177c1.3 23-28.4 54.7-28.4 54.7l-12.5-17.5a53.5 53.5 0 0021.8-38.5l-.2-137h19.3v138.3m87.2-142.8c-31.4 0-71.8 18.9-76 65.6-.6 5.7-1.1 11.9 0 23a77.4 77.4 0 0076 65.3c41 0 77.2-32.6 77.2-77.4a76.2 76.2 0 00-77.2-76.4zm0 134.6c-33.8 0-56.8-29-56.8-58 0-31.7 25.4-57 56.8-57 35 0 57.9 29 57.9 57a58 58 0 01-58 58z" fill="#353535"/><path d="M468.4 156c0 2.4-1.3 2.4-2.5 3.2h-65.8c0-.7-1.3-.7-1.3-3.2 0-1.7 1.3-1.7 2.5-2.6h65.8c0 1 1.3 1 1.3 2.5" fill="#8c8c8c"/></svg>