<svg xmlns="http://www.w3.org/2000/svg" viewBox="0 0 1600 1600"><defs/><path d="M-16.5 368h1633v612h-1633z" fill="none"/><path d="M663.9 485.4a33.4 33.4 0 1112.1 65.3 33.4 33.4 0 01-12.1-65.3z" fill="#fbc821"/><path d="M555.2 486.8c5.9-2 12.2-1.8 18.3-1.2a31.9 31.9 0 0123.5 17.8 35.8 35.8 0 012.8 20.6 32.5 32.5 0 01-24.9 26.4c-7.5 2.5-15.6.8-22.7-2.4a34.5 34.5 0 01-18-23.1c-.6-6.4-1-13.1 1.8-19a33 33 0 0119.2-19z" fill="#46bb3e"/><path d="M486.9 573.7c6-.7 12.2-.7 18 1.2a36 36 0 0120.3 21.4 42.8 42.8 0 010 20.5 35 35 0 01-21.2 21.6c-6.1 1.7-12.6 1.7-18.8.7a34.2 34.2 0 01-24.3-24.6 34.8 34.8 0 012.5-22.4 33.2 33.2 0 0123.5-18.4z" fill="#ef3343"/><path d="M724.9 573.5c8.3-1.5 17.6-.8 24.7 4.3a33.3 33.3 0 01-17 61.7c-15.9.9-31.2-11.8-33.2-27.5a33 33 0 0125.5-38.5z" fill="#4065b8"/><path d="M1505.9 578.4a32 32 0 1115.5 62.3 32 32 0 01-15.5-62.3z" fill="#8d9196"/><path d="M1507.9 583.4a26.9 26.9 0 0128 41 26.8 26.8 0 11-28-41z" fill="#fff"/><path d="M1499.6 592.7c6.5.1 13.1-.6 19.6.7 4.8 1 8 6.3 6.7 11.1-1 4-4.9 6-8.2 7.6 4.5 4.5 7.8 9.9 10.9 15.3-2.3 0-4.5 0-6.7-.5-3.2-4-4.8-9.2-8.6-12.7-2.3-1.9-5.4-1.5-8.1-1.8v14.9h-5.6v-34.6z" fill="#8d9196"/><path d="M1505.1 597.4c4 .1 8.3-.5 12.3.8 3.7 1.3 3.7 7.2.1 8.7-4 1.4-8.3.7-12.4.9v-10.4z" fill="#fff"/><path d="M151.4 659.6h57.8c0 16-3.9 31.5-5 47.3-.8 9.1-2.8 18.2-3.6 27.3-.7 9-2.6 17.9-3.5 26.8-.8 9-1.7 17.9-2.8 26.8h155.1c2.3-18.3 4.7-36.5 6.8-54.7 1.1-8 2.4-16 3-24 1.4-12.5 3.6-25 4.6-37.4.4-3.8.5-7.8 2.1-11.3 2.6-1.4 5.8-.7 8.6-.9 16.5.2 33-.1 49.5.2-.9 12.1-3.4 24-4.3 36.2-1.5 13-3.6 26-4.8 39-2.4 13.8-3 27.8-5.4 41.6-1.6 10.3-1.9 20.8-3.8 31.1-2.3 12.1-1.7 24.6-4.7 36.5l.3-10.1c-10.5-1.8-21.1-2.5-31.7-3.3-11.3-.7-22.4-3.5-33.7-4.2-11.6-1.4-23.2-2.7-34.8-4.3-15.7-3.4-32-3.8-47.7-7.2-13.2-2.9-26.8-3.7-40-6.8-7.8-1.8-15.8-2.8-23.6-4.3-9-1.7-17.7-4.2-26.6-5.7-9.3-1.5-18.3-4.3-27.5-6.3-1 7.5-2.4 15-3.9 22.4 0-7.4 1.4-14.5 2.6-21.7 1-6.2 1.4-12.4 2.1-18.6.8-7.4 2.5-14.6 3-22 .8-9.8 3-19.3 3.8-29 1-12.4 3.5-24.6 4.4-37 .6-8.9 2-17.7 3.7-26.4zM462.3 659.7c19.6-.3 39.2-.2 58.8 0-.6 10.2-3 20.1-3.7 30.3-.9 12-3.5 23.8-4.3 35.7-.6 9.2-3.1 18.2-3.5 27.4 9.7-2.6 18.9-7 29-7.9 21.5-4.2 43.8-2.7 65.2 1.8a86.7 86.7 0 0131.5 16.2 69.5 69.5 0 0121.7 36.1c3.6 12 3.4 24.6 3.2 36.9-.2 6.7 0 13.4-1.6 20l-.2-5.2c-11.6-.8-23.3 0-34.9-1.2-7-.7-14-1-21-1.2-1 5.9-2.5 11.6-3.9 17.4 1.1-11 4-21.9 3.4-33-.5-10-2.8-20.4-9.1-28.4a36 36 0 00-15.2-10.6c-8.6-3.5-18.1-2.7-27.2-2.6-13.6.1-26.6 4.2-39.4 8.2-2.9 1.1-6.3 2.2-7.7 5.1-1.4 3.9-1.5 8-2 12.1-.8 10.2-2.6 20.3-3.7 30.5l-.1-4.2a145 145 0 00-20.1-2.6c-12.3-.6-24.5-1.5-36.8-2.3-.8 8.7-2 17.5-3.9 26 0-5.8 1-11.5 2-17.3 1.7-12 2.8-24.2 4.7-36.3a758 758 0 014.4-35.5c.9-12.1 3.8-24 4.5-36.1.5-7.3 1.5-14.6 2.7-21.8 1.6-9.8 1.7-19.8 3.5-29.5 1.8-9.3 2-18.7 3.7-28zM701.8 659.8c19.7-.4 39.4-.3 59 0-1 9.7-2.8 19.4-3.5 29.2-.7 11.2-3.2 22.1-4.2 33.2-1 10.3-3.1 20.5-3.4 30.8 9.5-2.6 18.6-6.8 28.5-7.8 16.3-3 33-3.1 49.4-1 7.4 1.3 15 1.8 22 4.8a67.5 67.5 0 0147.4 51.1c3.3 11 3.2 22.6 3.1 34-.4 12.7-.7 25.7-4.5 38 .7-6.4 1.4-12.9 2.3-19.3-19-.6-38.1 0-57.2-.2 2.3-14 1.8-28.8-4-41.8-5.8-12.5-19.9-19-33.1-19.4-11.8-.3-23.7-.2-35.2 2.9-6.1 1.7-12.3 3.4-18.3 5.4-3 1.2-7 2.7-7.4 6.4-1.3 6.7-1.3 13.5-2.3 20.2-1.1 8.8-2.8 17.5-3.5 26.4-12.4-1.4-25-.7-37.4-1l-20-.6a124 124 0 00-2 7.2c.4-6.8 2-13.5 2.5-20.3.9-11.4 3.3-22.6 4.2-34 .9-11 3.2-22 4-33 1-11.7 3-23.3 4.3-35 1-9.3 3-18.5 3.7-28 .4-5.9 1-11.8 2.2-17.6 1.9-10.1 1.9-20.4 3.4-30.6zM914.4 659.7c93.7-.3 187.4 0 281.2-.2 1.8.1 3.7 0 5.4.9 2.3 3.6 2.8 8 4 12.2 12.3 42 24 84.3 36.2 126.4 3 10.8 6 21.7 9.3 32.5-11.1-.7-22.2 1.2-33.2 2.2-10.9 1.2-21.8 2-32.5 4-5.8-18.3-10.8-37-16.6-55.3-7.1-23.7-14.5-47.4-21.2-71.2-14.5-.7-29-.2-43.5-.4-15.4.2-30.9-.3-46.3.3a19835 19835 0 01-10.9 87.4c-1 12.5-3.6 25-4.5 37.5-.8 6.7-.8 13.5-2.7 20.1 0-2.6 0-5.2-.5-7.7-6.8-1.8-13.9-.7-20.7-.2-12 1.2-24.2 1.5-36.2 2.9l-1 5.2c0-7.6 1.3-15 2.5-22.5 1.5-8.8 2-17.7 3.3-26.6 2.3-14.3 3.2-28.9 5.6-43.2 1.7-17.8 4.4-35.4 6-53.1-30-.2-60.1 0-90.2-.1.9-9 2.6-17.8 3.4-26.8a580 580 0 013-24.3zM1397 660.3c2.7-1 5.7-.7 8.5-.8 20 .3 39.9-.2 59.8.3-3.1 8-8.1 15.2-12.2 22.9L1378.4 814c-11.7-.7-22.9 3.3-34.4 4.3-11.3.9-22.4 3.3-33.7 4.8 2.7-7.6 7.1-14.4 10.8-21.5 20.3-38.4 40.8-76.6 61.2-115 3.5-6.4 7.1-12.9 10.3-19.5 1.4-2.4 2.3-5.1 4.4-7z" fill="#acadb2"/><path d="M768.4 794.3c11.5-3.1 23.4-3.2 35.2-3 13.2.5 27.3 7 33 19.5 5.9 13 6.4 27.9 4.1 41.8a111.5 111.5 0 01-16 47.6 55.7 55.7 0 01-50.2 24.9c-15.2-.5-31 0-45.2-6.1-1-7.2 1.4-14.3 2-21.4l5.6-45c.7-8.8 2.4-17.5 3.5-26.3 1-6.7 1-13.5 2.3-20.2.5-3.7 4.4-5.2 7.4-6.4 6-2 12.2-3.7 18.3-5.4z" fill="none"/><path d="M135.7 792c9.2 1.9 18.2 4.7 27.5 6.2 9 1.5 17.7 4 26.6 5.7 7.8 1.5 15.8 2.5 23.6 4.3 13.2 3 26.8 4 40 6.8 15.8 3.4 32 3.8 47.7 7.2 11.6 1.6 23.2 2.9 34.8 4.3 11.3.7 22.4 3.5 33.7 4.2 10.6.8 21.2 1.5 31.7 3.3L401 844c-1.1 11-2 21.9-3.8 32.6-1.7 10.2-1.8 20.6-3.7 30.8-2 10.5-2 21.3-4.1 31.8-2 11-1.6 22.3-4.4 33.1h-58.4c.4-11 3.4-21.5 4-32.4.5-11.3 3.2-22.3 4-33.5.7-9.7 3-19.3 3.7-29 1-12.8 3.7-25.4 4.7-38.2H187.7a510.6 510.6 0 00-4.1 34c-2.1 12.9-3.3 25.8-4.9 38.6-2 11.7-2.7 23.6-4.6 35.3-1.3 8.4-1.8 16.8-3.2 25.2l-58.7-.1c2-12.8 2.9-25.7 4.8-38.5 2-11.4 2.3-23 4.3-34.4 1.9-10.4 2-21 3.9-31.2 2.2-11.5 2-23.2 4.3-34.7 1.3-6.3 1.5-12.8 2.3-19.2 1.5-7.5 2.9-14.9 4-22.4zM1344 818.4c11.5-1 22.7-5 34.4-4.3-29.5 51.8-58.8 103.8-88.3 155.5-1 1.8-2.5 3-4.5 2.7h-60.4c-13.2-44.9-27.2-89.6-40.4-134.5 10.7-2 21.6-3 32.5-4.1 11-1 22-2.9 33.2-2.2 6.1 22.1 12.3 44.3 19 66.3 9.1-15.5 17-31.5 25.6-47.3 4.6-9.1 9.9-18 14.3-27.2l1-.1c11.2-1.5 22.3-3.9 33.6-4.8zM440.7 838.2c12.3.8 24.5 1.7 36.8 2.3a145 145 0 0120.1 2.6v4.2c-.7 12-3 23.9-4.3 35.8-1 12-3.3 24-4.4 36 9 2.9 18.2 5.1 27.6 5.5 12 .2 24 1.4 35.9-1.1a55.2 55.2 0 0026.1-15.5 86.7 86.7 0 0020.1-42c1.4-5.8 2.8-11.5 4-17.4 7 .2 14 .5 20.9 1.2 11.6 1.2 23.3.4 35 1.2l.1 5.2a155.1 155.1 0 01-25.6 70.4 105.4 105.4 0 01-52.4 37.7c-9 2.3-17.7 5.7-27 6.3-28.3 4-56.8.8-85.1-1.2-3.8-.2-7.6-1-11.3-1.7-10.6-2.1-21.5-2.1-32-4.6-.7-4 .2-8.2.8-12.2 1.9-10.6 2.3-21.3 4-32 2-11.4 2.5-23 4.4-34.4 1.2-6.7 1.5-13.5 2.4-20.2 1.9-8.6 3.1-17.4 4-26.1zM1017.9 848.2c6.8-.5 14-1.6 20.7.2.6 2.5.5 5.1.5 7.7-1.2 13.1-3 26.2-4.9 39.2-1 15-4.1 29.8-5.2 44.8-1.6 10.7-3.3 21.4-4 32.3l-59.1-.1c2.7-13.8 2.7-28 5.4-41.8 1.5-10.8 2.2-21.7 4-32.5a992.8 992.8 0 016.4-47c12-1.3 24.1-1.6 36.2-2.8zM679.6 851.1c6.6.3 13.3.4 19.9.6 12.5.3 25-.4 37.4 1-1.8 15-3.8 30-5.5 45-.7 7-3 14.1-2 21.3 14 6.1 30 5.6 45 6 8.5 0 17.3-.4 25-4a55.7 55.7 0 0025.3-20.8c9.6-14 13.7-31 16-47.6 19 .3 38.2-.4 57.2.2-.9 6.4-1.6 12.9-2.3 19.3-2.5 13.2-7 26-13 38.1a104.8 104.8 0 01-51.8 50c-8.3 4.3-17.7 5.9-26.6 8.6a277 277 0 01-76.9 2c-8.2-.4-16.3-1.1-24.5-2-12.5-2.7-25.4-3.3-38.1-5.5a84 84 0 011-11.7c1.7-10 2.4-20.2 3.8-30.3 2-12.9 3-26 5-38.9 1.2-8 1.5-16.1 3-24a124 124 0 012-7.3z" fill="#8d9196"/></svg>