<svg xmlns="http://www.w3.org/2000/svg" version="1.0" viewBox="0 0 390 390"><defs/><path d="M163.2 27.8L28.8 165.3c-45.4 56.2 30.9 49.7 63.6 65.9 11.7 12-45 20.8-33.2 32.8 11.7 12 70.9 23.1 82.6 35 11.8 12-24 24.8-12.2 36.8 11.7 12 38.8.6 44 28.3 3.5 19.8 48.8 8.5 71-7.7 11.7-12-22.5-10.9-10.8-22.9 29.2-29.8 56.4-10.8 66.3-40.7 5-14.8-42.9-22.8-31.2-34.8 33.8-19.7 150.5-32.5 95.1-87.8L224.7 27.8a44.6 44.6 0 00-61.5 0zm154.3 265c0 6.8 50.2 11.3 50.2-1.6-7.1-20.7-44.3-19.3-50.2 1.6zM91 329.1c11.9 10.2 30.3-2.6 35.8-17-11.5-15.3-54.7.6-35.8 17zm220-22.3c-15.3 13.8 1.8 27.7 16.9 18.8 3.4-3.4 0-15.4-16.8-18.8z"/><path fill="#fff" d="M131 238.6c3.6 2.2 57.9 13.3 71.2 15.5 4.6 1 1.3 5.7-5 8.9-14.3 3.8-83.7-24.4-66.2-24.4zM216.6 37.5l53.2 54c5 5.1 5 15 2.1 18l-26.4-21.2-5.2 31.3-22-11.6-35.3 22.3-11.7-47-19 32.8h-29c-11.8 0-13.2-15-2.4-25.8 18.7-20.2 40.3-40.9 52-52.8a31.4 31.4 0 0143.7 0z"/></svg>