<svg xmlns="http://www.w3.org/2000/svg" viewBox="0 0 1530 1530"><defs/><defs><clipPath id="a"><path d="M469 271h147v448.6H469zm0 0"/></clipPath><clipPath id="b"><path d="M838 271h683.1v421H838zm0 0"/></clipPath></defs><path d="M763.8 552.2h-65.6c-6 0-10.7 4.7-10.7 10.6v399c0 6 4.8 10.7 10.7 10.7h65.6c5.9 0 10.7-4.7 10.7-10.7v-399c0-5.9-4.8-10.6-10.7-10.6" fill="#1c4f7f"/><g clip-path="url(#a)" transform="translate(4.4 280.8)"><path d="M605.7 271.4h-66.3c-5.6 0-10.2 4.5-10.2 10.1v312.2c0 39.3-30 52.2-50.2 53.2a10.2 10.2 0 00-9 13.1l16.2 52.5c1.3 4.3 6 7 13.5 7 63.5 0 116.2-49.8 116.2-116.6V281.6a10.2 10.2 0 00-10.2-10.2" fill="#1c4f7f"/></g><path d="M96.2 443.3a36.9 36.9 0 100 73.8 36.9 36.9 0 000-73.8M338.7 443.3a36.9 36.9 0 100 73.8 36.9 36.9 0 000-73.8M217.4 409.6a36.9 36.9 0 100 73.8 36.9 36.9 0 000-73.8M426 546.2a11.7 11.7 0 00-11.2-1.6c-25 9.6-50.4 16.8-73.6 22.2-4.7 1.1-8.5 4.6-10 8.9-17 46.2-60 90.2-105.3 136.3-1.8 1.7-4.3 4-8.5 4-4.1 0-6.6-2.2-8.5-4-45.2-46.1-88.2-90-105.1-136.2a14.4 14.4 0 00-10.2-8.8 571.4 571.4 0 01-73.5-22.4A11.3 11.3 0 009 546.2a11.5 11.5 0 00-4.5 10.2c3.8 38.4 19 76 46.4 115.3 25.8 37 59.4 71.3 91.9 104.5 59.8 61 116.4 118.7 121.4 185.6.4 6 5.4 10.7 11.5 10.7H346a11.6 11.6 0 0011.6-12.2c-2.2-44.6-19-89.4-51.4-136.8a459 459 0 00-21.7-29c-3.1-4-1.8-8.7.6-11.1l7-7.2c32.5-33.2 66.1-67.4 91.9-104.5 27.4-39.3 42.6-76.7 46.4-115.1.4-3.9-1.4-8-4.5-10.4M142 828.2a10.7 10.7 0 00-8.3-3.5c-5.2 0-8.3 3.6-9.5 5.4-29.6 45-44.9 87.5-47 130.2a11.6 11.6 0 0011.6 12.2h70.3c6 0 11-4.7 11.5-10.8a156 156 0 0119.6-62.8c4-7.5 1-14.6-1.4-17.6a651.2 651.2 0 00-46.8-53.1" fill="#1c4f7f"/><path d="M217.5 580.7c22 0 34.8-1.3 39.3-1.3a10.7 10.7 0 019.8 15c-3 7.8-16.2 35.9-41 60-2.8 2.7-6 3.2-8.1 3.2-2.2 0-5.4-.5-8.2-3.2a186.9 186.9 0 01-41-60 10.8 10.8 0 019.8-15c4.4 0 17.2 1.3 39.3 1.3h.1" fill="#1c4f7f"/><g clip-path="url(#b)" transform="translate(4.4 280.8)"><path d="M1394.8 278.8a10.7 10.7 0 00-10.2-7.4H1285c-4.6 0-8.8 3-10.2 7.4l-115.3 366-71-102.4c39.2-16.3 59.2-50.5 59.2-101.6V387c0-80-41.8-115.7-135.5-115.7H849.7c-6 0-10.7 4.8-10.7 10.7v399c0 5.9 4.8 10.6 10.7 10.6h65.6c5.8 0 10.6-4.7 10.6-10.7V556h67.2l91.2 131.1c2 2.9 5.3 4.6 8.8 4.6h134.7c4.7 0 8.9-3 10.2-7.6l86.6-293.5s2.3-7.3 10.2-7.3c8 0 9.9 7.6 9.9 7.6l40.2 139.2h-55.3c-4.7 0-9 3.1-10.2 7.8l-15.5 55c-1 3.3-.3 6.7 1.7 9.4 2 2.6 5.2 4.2 8.6 4.2h93.1l24.3 77.7c1.3 4.5 5.5 7.5 10.2 7.5h68.6a10.6 10.6 0 0010.2-13.9zM1060.6 434c0 34-13 45.4-51.6 45.4h-83V349h83c43 0 51.6 17 51.6 44.2V434" fill="#1c4f7f"/></g></svg>