<svg xmlns="http://www.w3.org/2000/svg" xmlns:xlink="http://www.w3.org/1999/xlink" viewBox="2.6 0 224 224"><defs/><defs><linearGradient xlink:href="#a" id="b" gradientUnits="userSpaceOnUse" gradientTransform="matrix(1 0 0 -1 6.3 264)" x1="102.4" y1="218.6" x2="56.1" y2="172.4"/></defs><linearGradient id="a" gradientTransform="matrix(1 0 0 -1 0 264)" gradientUnits="userSpaceOnUse" x1="102.4" x2="56.1" y1="218.6" y2="172.4"><stop offset=".2" stop-color="#0052cc"/><stop offset="1" stop-color="#2684ff"/></linearGradient><linearGradient id="c" x1="114.7" x2="160.8" xlink:href="#a" y1="85.8" y2="131.9" gradientTransform="translate(6.3)"/><path d="M220.3 105.7L124 9.3 114.6 0 42 72.6 8.9 105.7a8.9 8.9 0 000 12.6l66.3 66.3 39.4 39.4 72.6-72.6 1-1 32-32a8.9 8.9 0 000-12.7zm-105.7 39.4l-33-33.1 33-33.1 33 33.1z" fill="#2684ff"/><path d="M114.6 78.9a55.8 55.8 0 01-.2-78.6L41.9 72.7l39.5 39.4z" fill="url(#b)"/><path d="M147.8 112l-33.2 33a55.8 55.8 0 010 78.9l72.7-72.6z" fill="url(#c)"/></svg>