<svg preserveAspectRatio="xMidYMid" xmlns="http://www.w3.org/2000/svg" viewBox="0 0 256 256"><path d="M254.6 142 223 126.8l29.8-14c2.3-1 3.7-4 2-6.6l-3-3.6c-2-2.2-4.2-3.8-6.8-2.7l-22.2 8.3c-.5.2-1 .3-1.5.1l-8.6-2.4a2 2 0 0 0-1.8.4l-9.2 8.7A74.6 74.6 0 0 0 188 83.2l13.4-.1c.6 0 1.1-.4 1.4-.9l4.7-8.6c.3-.4.7-.8 1.1-1l22-9.4c1.4-.5 2.2-3.3 2-5.1l-.8-6.6c-.6-1.9-3.2-3.6-4.5-3l-33 11.4 11.2-31c.9-2.4-.2-5.3-3.2-6l-4.7-.4c-3-.2-5.7.2-6.8 2.8L181.1 47c-.2.5-.5.9-1 1.1l-7.8 4.4c-.6.3-1 1-1 1.6l-.3 12.6a74.5 74.5 0 0 0-32.2-12.8l9.4-9.5c.4-.5.6-1 .4-1.6l-2.7-9.5a2 2 0 0 1 0-1.5l9-22.1c.5-1.4-1-4-2.4-5L147.4.4c-1.8-.9-4.8-.2-5.4 1L126.8 33l-14-29.8a4.5 4.5 0 0 0-6.6-2l-3.6 3c-2.2 2-3.8 4.2-2.7 6.8l8.3 22.2c.2.5.3 1 .1 1.5l-2.4 8.6a2 2 0 0 0 .4 1.8l8.7 9.2A74.6 74.6 0 0 0 83.2 68L83 54.5c0-.6-.4-1.1-.9-1.4l-8.6-4.7c-.4-.3-.8-.7-1-1.1l-9.4-22c-.5-1.4-3.3-2.2-5.1-2l-6.6.8c-1.9.6-3.6 3.2-3 4.5l11.4 33-31-11.2c-2.4-.9-5.3.2-6 3.2l-.4 4.7c-.2 3 .2 5.7 2.8 6.8L47 74.9c.5.2.9.5 1.1 1l4.4 7.8c.3.6 1 1 1.6 1l12.6.3a74.5 74.5 0 0 0-12.8 32.2l-9.5-9.4c-.5-.4-1-.6-1.6-.4l-9.5 2.7a2 2 0 0 1-1.5 0l-22.1-9c-1.4-.5-4 1-5 2.4l-4.2 5.1c-.9 1.8-.2 4.8 1 5.4L33 129.2l-29.8 14a4.5 4.5 0 0 0-2 6.6l3 3.6c2 2.2 4.2 3.8 6.8 2.7l22.2-8.3c.5-.2 1-.3 1.5-.1l8.6 2.4a2 2 0 0 0 1.8-.4l9.2-8.7c2 11.8 6.8 22.6 13.7 31.8l-13.4.1c-.6 0-1.1.4-1.4.9l-4.7 8.6c-.3.4-.7.8-1.1 1l-22 9.4c-1.4.5-2.2 3.3-2 5.1l.8 6.6c.6 1.9 3.2 3.5 4.5 3l33-11.4-11.2 31c-.9 2.3.2 5.3 3.2 6l4.7.4c3 .2 5.7-.2 6.8-2.8l9.8-21.6c.2-.5.5-.9 1-1.1l7.8-4.4c.6-.3 1-1 1-1.6l.3-12.6a74.5 74.5 0 0 0 32.2 12.8l-9.4 9.5c-.4.5-.6 1-.4 1.6l2.7 9.5c.2.5.2 1 0 1.5l-9 22.1c-.5 1.4 1 4 2.4 5l5.1 4.2c1.8.9 4.8.2 5.4-1l15.2-31.5 14 29.8c1 2.3 3.9 3.7 6.6 2l3.6-3c2.2-2 3.8-4.2 2.7-6.8l-8.3-22.2c-.2-.5-.3-1-.1-1.5l2.4-8.6a2 2 0 0 0-.4-1.8l-8.7-9.2c11.8-2 22.6-6.8 31.8-13.7l.1 13.4c0 .6.4 1.1.9 1.4l8.6 4.7c.4.3.8.7 1 1.1l9.4 22c.5 1.4 3.3 2.2 5.1 2l6.6-.8c1.9-.6 3.5-3.2 3-4.5l-11.4-33 31 11.2c2.4.9 5.3-.2 6-3.2l.4-4.7c.2-3-.2-5.7-2.8-6.8l-21.6-9.8c-.5-.2-.9-.5-1.1-1l-4.4-7.8c-.3-.6-1-1-1.6-1l-12.6-.3a74.5 74.5 0 0 0 12.8-32.2l9.5 9.4c.5.4 1 .5 1.6.4l9.5-2.7a2 2 0 0 1 1.5 0l22.1 9c1.4.5 4-1 5-2.4l4.2-5.1c.9-1.8.2-4.8-1-5.4zm-72.9-22.4h-15.9a38.5 38.5 0 0 0-6.5-14.3L170.5 94c5.8 7.3 9.8 16 11.2 25.5zm-32.9-24.2a38.5 38.5 0 0 0-14.7-5.6V74a54 54 0 0 1 26 10.1zm-2 32.6a18.9 18.9 0 1 1-37.7 0 18.9 18.9 0 0 1 37.8 0zm-27.2-53.7v15.9a38.5 38.5 0 0 0-14.3 6.5L94 85.5c7.3-5.8 16-9.8 25.5-11.2zm-24.2 32.9a38.5 38.5 0 0 0-5.6 14.7H74a54 54 0 0 1 10.1-26zm-21.1 29.2h15.9a38.5 38.5 0 0 0 6.5 14.3L85.5 162c-5.8-7.3-9.8-16-11.2-25.5zm32.9 24.2c4.4 2.8 9.3 4.8 14.7 5.6V182a54 54 0 0 1-26-10.1zm29.2 21.1v-15.9a38.5 38.5 0 0 0 14.3-6.5l11.2 11.2c-7.3 5.8-16 9.8-25.5 11.2zm24.2-32.9c2.8-4.4 4.8-9.3 5.6-14.7H182a54 54 0 0 1-10.1 26z" fill="#e16426"/></svg>