<svg xmlns="http://www.w3.org/2000/svg" preserveAspectRatio="xMidYMid" viewBox="0 0 256 256"><defs/><g fill="none" fill-rule="evenodd"><path d="M.4 24h23.8v157.9h94v19.5H.5V24zm182.8 46.5a60 60 0 0146.5 11.9c14 9.7 21.6 27 22.7 43.3 2.1 19.4 0 38.9-10.8 55.1a57 57 0 01-42.2 22.7 66.2 66.2 0 01-48.7-11.9 66.8 66.8 0 01-21.6-43.2 73.8 73.8 0 0110.8-52 54.5 54.5 0 0143.3-25.9zm3.2 18.4a42 42 0 0131.4 9.7 54.3 54.3 0 0113 30.3c1 11.9 0 24.9-5.5 35.7a37.6 37.6 0 01-57.3 13 44.6 44.6 0 01-16.2-26 76 76 0 014.3-41 37.4 37.4 0 0130.3-21.7z" fill="#000"/><path d="M.4 229.5h255.2v27H.4z" fill="#3492ff"/></g></svg>