<svg xmlns="http://www.w3.org/2000/svg" viewBox="0 0 2228.83 2073.33">
  <path fill="#5059C9" d="M1554.64 777.5h575.71c54.4 0 98.48 44.1 98.48 98.48v524.4c0 199.9-162.05 361.95-361.95 361.95h-1.71c-199.9.03-361.98-162-362-361.9V828.98a51.47 51.47 0 0 1 51.47-51.48z"/>
  <circle cx="1943.75" cy="440.58" r="233.25" fill="#5059C9"/>
  <circle cx="1218.08" cy="336.92" r="336.92" fill="#7B83EB"/>
  <path fill="#7B83EB" d="M1667.32 777.5H717.01c-53.74 1.33-96.26 45.93-95.01 99.68v598.1c-7.5 322.52 247.66 590.16 570.17 598.05 322.5-7.89 577.67-275.53 570.16-598.05v-598.1c1.25-53.75-41.26-98.35-95-99.68z"/>
  <path d="M1244 777.5v838.14a95.42 95.42 0 0 1-59.09 87.6 91.86 91.86 0 0 1-35.77 7.26H667.62c-6.73-17.1-12.95-34.21-18.14-51.83a631.29 631.29 0 0 1-27.47-183.5V877.03c-1.25-53.66 41.2-98.19 94.85-99.52H1244z" opacity=".1"/>
  <path d="M1192.17 777.5v889.98a91.84 91.84 0 0 1-7.26 35.76 95.42 95.42 0 0 1-87.6 59.1H691.98c-8.82-17.11-17.11-34.22-24.37-51.84a514.1 514.1 0 0 1-18.14-51.83 631.28 631.28 0 0 1-27.47-183.5V877.03c-1.25-53.66 41.2-98.19 94.85-99.52h475.32z" opacity=".2"/>
  <path d="M1192.17 777.5v786.31a95.58 95.58 0 0 1-94.86 94.86H649.47a631.28 631.28 0 0 1-27.47-183.5V877.03c-1.25-53.66 41.2-98.19 94.86-99.52h475.3z" opacity=".2"/>
  <path d="M1140.33 777.5v786.31a95.58 95.58 0 0 1-94.85 94.86h-396a631.28 631.28 0 0 1-27.48-183.5V877.03c-1.25-53.66 41.2-98.19 94.86-99.52h423.47z" opacity=".2"/>
  <path d="M1244 509.52V672.8c-8.81.52-17.1 1.03-25.92 1.03-8.8 0-17.1-.51-25.91-1.03a284.47 284.47 0 0 1-51.84-8.3 336.92 336.92 0 0 1-233.25-198 288.02 288.02 0 0 1-16.58-51.83h258.64a95.22 95.22 0 0 1 94.86 94.85z" opacity=".1"/>
  <path d="M1192.17 561.36V672.8a284.47 284.47 0 0 1-51.84-8.3 336.92 336.92 0 0 1-233.25-198h190.23a95.22 95.22 0 0 1 94.86 94.86z" opacity=".2"/>
  <path d="M1192.17 561.36V672.8a284.47 284.47 0 0 1-51.84-8.3 336.92 336.92 0 0 1-233.25-198h190.23a95.22 95.22 0 0 1 94.86 94.86z" opacity=".2"/>
  <path d="M1140.33 561.36V664.5a336.92 336.92 0 0 1-233.25-198h138.4a95.22 95.22 0 0 1 94.85 94.86z" opacity=".2"/>
  <linearGradient id="a" x1="198.1" x2="942.23" y1="1683.07" y2="394.26" gradientTransform="matrix(1 0 0 -1 0 2075.33)" gradientUnits="userSpaceOnUse">
    <stop offset="0" stop-color="#5a62c3"/>
    <stop offset=".5" stop-color="#4d55bd"/>
    <stop offset="1" stop-color="#3940ab"/>
  </linearGradient>
  <path fill="url(#a)" d="M95.01 466.5h950.31a95.01 95.01 0 0 1 95.01 95.01v950.31a95.01 95.01 0 0 1-95 95.01H95a95.01 95.01 0 0 1-95.01-95V561.5A95.01 95.01 0 0 1 95 466.49z"/>
  <path fill="#FFF" d="M820.21 828.2H630.24v517.29H509.21v-517.3H320.12V727.84h500.1V828.2z"/>
</svg>