<svg data-name="Layer 1" xmlns="http://www.w3.org/2000/svg" viewBox="0 0 912 978.1"><g fill-rule="evenodd"><path fill="#412846" d="M456 0L0 158.6l65.4 606.3L456 978.1V0z"/><path fill="#4b314f" d="M456 0l456 158.6-65.5 606.3L456 978.1V0z"/><path d="M683.7 334.7v-.2q31.3 34.8 32.1 82.7c.6 32-10.1 65.6-32.4 101 16.6-13 35.9-41 57.6-83.5q14 129.4-105 196.7 38.1-3.5 100.9-50.2Q670 742.2 491 751c-115.3 0-190-69.3-190-69.3q-71-55.3-97.7-139.2c-28.3-31-28.6-34.3-31.5-46.7s1.8-15.8 10.1-28c5.6-8 6.9-19.6 4-34.5q-10.6-14.7-12.2-46 0-15.2 20.2-32c13.5-11.2 21.7-19.8 24.7-25.7q3.5-4.8 2.7-42-.2-36.6 40.5-39.8c40.8-3.2 63.8-33.9 76.6-47.8 8.6-9.3 21.2-13.8 37.1-14a78 78 0 0160.5 25.4c43.8-2.3 88.7 9.5 134.2 35.1Q667.2 304.1 676 371q-10.4 88-236-4.6-117.9 33.4-116 144.8 0 102.2 98.8 148.5c-32-31.5-45.7-58-41.1-79.9q100 118.5 227.7 88.6c-37.5 1.3-67.3-10.8-89.6-36.4q86.3-2.1 163-80.4c-29.6 23.5-60.5 32.4-93.2 26.8q132.9-104.4 94-243.7zM523 324a13 13 0 10-13-13 13 13 0 0013 13z" fill="#ba2bd2"/></g></svg>