<svg xmlns="http://www.w3.org/2000/svg" fill="none" viewBox="0 0 100 100"><path fill="#fff" d="M6.02 4.31 61.35.23c6.8-.59 8.54-.2 12.82 2.91L91.83 15.6c2.91 2.14 3.88 2.72 3.88 5.05v68.24c0 4.28-1.55 6.8-6.99 7.2l-64.25 3.89c-4.08.19-6.03-.4-8.16-3.12L3.3 79.94C.97 76.83 0 74.5 0 71.77V11.11c0-3.5 1.55-6.41 6.02-6.8z"/><path fill="#000" fill-rule="evenodd" d="M61.35.23 6.02 4.3C1.55 4.7 0 7.61 0 11.11v60.66c0 2.73.97 5.06 3.3 8.17l13 16.91c2.14 2.73 4.09 3.31 8.17 3.12l64.25-3.9c5.44-.38 7-2.91 7-7.19V20.64c0-2.21-.88-2.85-3.45-4.73L74.17 3.14C69.89.04 68.15-.36 61.35.23zm-35.43 19.3c-5.25.35-6.44.43-9.42-2l-7.57-6.02c-.77-.78-.39-1.76 1.55-1.95l53.2-3.89a10.95 10.95 0 0 1 8.54 2.53l9.12 6.61c.39.2 1.36 1.36.2 1.36l-54.94 3.3-.68.05zM19.8 88.3V30.37c0-2.53.78-3.7 3.1-3.9L86 22.78c2.14-.2 3.1 1.17 3.1 3.7v57.54c0 2.53-.38 4.67-3.88 4.86l-60.37 3.5c-3.5.2-5.05-.97-5.05-4.08zm59.6-54.83c.39 1.75 0 3.5-1.75 3.7l-2.9.58v42.77c-2.53 1.36-4.86 2.14-6.8 2.14-3.11 0-3.89-.97-6.21-3.89L42.7 48.83V77.8l6.02 1.36s0 3.5-4.86 3.5l-13.4.78c-.38-.78 0-2.72 1.37-3.11l3.5-.97v-38.3l-4.86-.4c-.39-1.74.58-4.27 3.3-4.47l14.37-.96 19.8 30.32V38.72l-5.05-.58c-.39-2.14 1.16-3.7 3.1-3.89l13.4-.78z" clip-rule="evenodd"/></svg>