<svg xmlns="http://www.w3.org/2000/svg" viewBox="0 0 128 128"><defs/><path d="M105.4 21l2.5 3.4a2 2 0 01-.3 2.8l-2.8 2.1a16 16 0 011 4.2l3 .4a2 2 0 011.8 2.4l-.5 4.2a2 2 0 01-2.4 1.8l-3.4-.5a16 16 0 01-2.3 3.6l2 2.5a2 2 0 01-.5 3l-3.4 2.5a2 2 0 01-2.8-.4l-2.1-2.7c-1.4.5-2.8.8-4.2 1l-.5 3a2 2 0 01-2.3 1.8l-4.2-.6a2 2 0 01-1.8-2.3l.5-3.4c-1.3-.6-2.6-1.4-3.7-2.3l-2.5 1.9a2 2 0 01-2.8-.4L71 45.6a2 2 0 01.4-2.9l2.7-2c-.5-1.4-.8-2.8-1-4.3l-3-.4a2 2 0 01-1.8-2.3l.6-4.3a2 2 0 012.3-1.7l3.4.5c.6-1.4 1.4-2.6 2.3-3.7L75 22a2 2 0 01.5-2.9l3.4-2.5a2 2 0 012.8.3l2.1 2.8a16 16 0 014.2-1l.5-3a2 2 0 012.3-1.8l4.2.5a2 2 0 011.8 2.3l-.5 3.5c1.3.6 2.6 1.4 3.7 2.3l2.5-2a2 2 0 012.9.4zM32.2 81V64.5h8.5c1.6 0 2.8 0 3.6.4.9.2 1.6.7 2 1.5.6.7.8 1.6.8 2.6s-.2 1.8-.6 2.4c-.4.7-.9 1.2-1.6 1.6a6 6 0 01-1.8.7l1.4.6.8.9.7 1 2.5 4.8h-5.8L40 76c-.4-.7-.7-1.1-1-1.3-.3-.3-.7-.4-1.2-.4h-.4V81h-5.2zm18 28.7h-9.5l-1.4 4.5h-8.6L41 87h9.2l10.2 27.2h-8.8zm-1.8-6l-3-9.7-3 9.8zm14-16.7h14c3 0 5.3.7 6.8 2.1 1.5 1.5 2.2 3.6 2.2 6.2 0 2.8-.8 5-2.4 6.5-1.7 1.5-4.2 2.3-7.6 2.3h-4.6v10h-8.5zm8.4 11.6h2c1.7 0 2.8-.3 3.5-.9.6-.5 1-1.2 1-2.1a3 3 0 00-.9-2.2c-.6-.6-1.6-.9-3.2-.9h-2.4zm18-11.6h8.5v27.2h-8.5zM37.4 71.2h2.1l1.4-.3c.3 0 .6-.2.8-.5.2-.3.3-.6.3-1 0-.5-.2-1-.5-1.2-.3-.3-1-.4-2-.4h-2.1zm12-6.7h13.7V68h-8.5v2.6h7.9V74h-8v3.2h8.8V81H49.4zm15.1 11l4.9-.3c0 .8.3 1.4.6 1.8.6.6 1.3 1 2.3 1 .7 0 1.3-.2 1.7-.5.3-.4.5-.8.5-1.2 0-.4-.1-.8-.5-1.2-.4-.3-1.3-.6-2.6-1-2.3-.4-3.8-1.1-4.8-2a4 4 0 01-1.4-3.1c0-.9.2-1.7.7-2.4.5-.8 1.2-1.4 2.2-1.8 1-.4 2.4-.6 4-.6 2.2 0 3.8.4 4.9 1.2 1 .7 1.8 2 2 3.7l-4.8.3c-.2-.8-.4-1.3-.8-1.6-.4-.4-1-.5-1.7-.5-.6 0-1 0-1.4.3-.3.3-.4.6-.4 1 0 .2.1.4.4.7.2.2.8.4 1.7.6 2.2.5 3.8 1 4.8 1.4a5 5 0 012 1.9c.5.7.7 1.5.7 2.4a5.5 5.5 0 01-3.3 5c-1 .4-2.4.6-4 .6-2.8 0-4.7-.5-5.8-1.6a6.5 6.5 0 01-1.9-4.1zm15.8-11h15.5v4h-5.2V81h-5.1V68.5h-5.2zM63 25.3a31.7 31.7 0 00-5.5 0 29.3 29.3 0 00-26.3 24.2l-.5 2.6-2.5.4c-2.5.5-4.7 1-6.6 1.8a22 22 0 00-5 2.7A16.5 16.5 0 0010 70.9a20 20 0 003.8 11.5c.9 1.3 2 2.4 3.1 3.4a15.9 15.9 0 004.2 2.5l2.7.9v7.5a23.2 23.2 0 01-16-10A27.5 27.5 0 012.6 71 24.3 24.3 0 0119 47.5c1.7-.7 3.5-1.3 5.5-1.7A36.2 36.2 0 0156.9 18c3.7-.3 7.4-.1 11 .5l-.2 1v1.8a9 9 0 00-4.6 4zM116 44.5a27.4 27.4 0 014.7 5.5 33 33 0 014.7 18c0 6.2-1.7 12.5-5.2 17.1-2.3 3-5.2 5.5-8.7 7.5a41 41 0 01-8 3.3v-7.7c1.6-.6 3-1.3 4.4-2a20 20 0 006.4-5.5c2.5-3.3 3.7-8 3.8-12.8 0-5.1-1.2-10.2-3.6-13.9a20.8 20.8 0 00-3.2-3.8v-1.5c.8-.3 1.5-.7 2.2-1.2a9 9 0 002.5-3zM90.6 26.6a8.4 8.4 0 11-2.2 16.7 8.4 8.4 0 012.2-16.7z" fill-rule="evenodd" clip-rule="evenodd"/></svg>