<svg xmlns="http://www.w3.org/2000/svg" style="-ms-transform:rotate(360deg);-webkit-transform:rotate(360deg)" transform="rotate(360)" viewBox="0 0 256 256"><defs/><path d="M0 0h256v256H0V0z" fill="#34BDB2"/><path d="M168.5 87c-13.6-7.8-25.6-14-41.2-13.7-9 .2-16.7 5-18.4 14-1.5 8.3 6 12.9 13.6 15.7 12.8 4.7 23.8 9.7 36.4 14.9 22.7 9.5 34.4 24.9 33 44.6-1.7 25-16.8 43-40.8 49-31.4 7.7-61.8-4-87.5-20.6 6.5-9.9 14-16.6 20.4-26.4 15 6.3 26.6 14.8 42.1 16.2 11 1 23.4.4 25.9-12.5 2.2-11.6-8-17.8-17.8-21.3-11.7-4.1-23.4-9.2-35-13.9a43 43 0 01-28.4-45.7c0-11.7 9.7-35.5 33.6-42.9 36.7-11.3 57 .3 83.5 17.4-7 9.4-12.5 16-19.4 25.2" fill="#FFF"/><path fill="rgba(0, 0, 0, 0)" d="M0 0h256v256H0z"/></svg>