<svg xmlns="http://www.w3.org/2000/svg" viewBox="0 0 512 512"><path d="M128.4 245.8c-2 25.2 20.1 43.8 35.2 43.8 15.1-.7 74-50.4 74-50.4 27.7-35 27.8-50.6 27.8-62.8-2.3-54-100.7 28.3-137 69.4zM372 225c13.3-28.3-4.7-59.7-43.8-32-31 19.7-71.3 60.3-90.5 76.2-9 18 13.7 67.6 49.5 41.4 42.5-30.8 73.4-59.8 84.8-85.6zm36.4-171L417 0h95v98.2l-34.8.4-42 142c2.6 50.2-22.8 51-26 74-8.2 57.8-72.8 105.1-97.5 105.1-16.5-.4-28.6-19.3-32.6-35.8a631 631 0 0 1 109-91.8c3.9-27-4.7-35.7 24.1-58.7l27.6-144.7c-23.6-15.6-34.5-15.3-31.4-34.9zM222.9 293.4c24 48.6 58.9 49.8 112.9-12 1.3 5.7 2.7 11.7.1 26.1-109.8 98.3-213.3 194-244.8 204.5H0v-24.4c14.8-20.6 136.4-121 222.9-194zm162.3 94c-5 42-43.3 78.9-94.5 124.5H128.4l136.8-115.3c23.7 53.8 65.6 46 120-9.2zm-192-95.4L0 457V350l113.7-92.5c6.1 34.5 43.4 64.8 79.6 34.7z"/></svg>