<svg xmlns="http://www.w3.org/2000/svg" version="1.0" viewBox="-23.6 -23.5 153.3 158.8"><defs/><path d="M105 8.8l1.6 6.6a405.8 405.8 0 00-40.8 7.8 215 215 0 00-31 10c-7.9 3.2-11.5 5.9-11 8 .4 1.7 3.7 2.6 9.8 2.4 3.2 0 8.3-.4 15.4-1l27.4-2.8c20.6-2.1 34.7-3 42.5-2.8 7.7.2 12 1.8 12.7 4.8 1 4-6.3 9.3-22 16C94 64.4 73.8 70.8 49 77 28 82.4 10 86.1-5 88.4L-6.6 82c17.9-2.6 34-5.6 48.2-9.2 13.3-3.4 23.6-6.7 30.8-9.8 7.2-3.2 10.5-5.9 10-8-.5-2-3.8-2.9-10-3a707.8 707.8 0 00-33.8 2.6C25.8 56 15.1 57 6.6 57.7c-8.4.7-14.7 1-18.9 1-8 0-12.4-1.6-13.1-4.6-1-4 5.7-9.2 20.3-15.4a421 421 0 0159.7-19A733 733 0 01105 8.8z" fill="#fff" stroke="#999" stroke-width=".5"/><path d="M104 9.7H-4v78.8h108V9.7z" fill="#809cc9"/><path d="M105 8.8l1.6 6.6a405.8 405.8 0 00-40.8 7.8 215 215 0 00-31 10c-7.9 3.2-11.5 5.9-11 8 .4 1.7 3.7 2.6 9.8 2.4 3.2 0 8.3-.4 15.4-1l27.4-2.8c20.6-2.1 34.7-3 42.5-2.8 7.7.2 12 1.8 12.7 4.8 1 4-6.3 9.3-22 16C94 64.4 73.8 70.8 49 77 28 82.4 10 86.1-5 88.4L-6.6 82c17.9-2.6 34-5.6 48.2-9.2 13.3-3.4 23.6-6.7 30.8-9.8 7.2-3.2 10.5-5.9 10-8-.5-2-3.8-2.9-10-3a707.8 707.8 0 00-33.8 2.6C25.8 56 15.1 57 6.6 57.7c-8.4.7-14.7 1-18.9 1-8 0-12.4-1.6-13.1-4.6-1-4 5.7-9.2 20.3-15.4a421 421 0 0159.7-19A733 733 0 01105 8.8z" fill="#fff"/><path d="M.7 64.9c.3 0 .5.1.7.3.2.2.3.5.3.8 0 .2 0 .5-.3.7a1 1 0 01-.7.3 1 1 0 01-.8-.3 1 1 0 01-.3-.7c0-.3.1-.6.3-.8.2-.2.5-.3.8-.3zm0 6.8c.3 0 .5.1.7.3.2.2.3.5.3.8 0 .3 0 .5-.3.7a1 1 0 01-1.2.2 1 1 0 01-.3-.2 1 1 0 01-.2-.3l-.1-.4c0-.3.1-.6.3-.8.2-.2.5-.3.8-.3zm3.6-6.8c.3 0 .6.1.8.3.2.2.3.5.3.8 0 .2-.1.5-.3.7a1 1 0 01-.8.3 1 1 0 01-.7-.3 1 1 0 01-.3-.7c0-.3 0-.6.3-.8.2-.2.4-.3.7-.3zm0 6.8c.3 0 .6.1.8.3.2.2.3.5.3.8 0 .3-.1.5-.3.7a1 1 0 01-1.2.2 1 1 0 01-.3-.2 1 1 0 01-.3-.3v-.4c0-.3 0-.6.3-.8.2-.2.4-.3.7-.3z" fill="#fff"/><path d="M2.3 96.2a2.1 2.1 0 01-1.3 2c-.5.2-1 .3-1.6.3-.7 0-1.3-.1-1.7-.4-.3-.2-.6-.4-.8-.8l-.3-.9c0-.2 0-.3.2-.4 0-.2.2-.2.4-.2l.4.1.3.4c0 .3.2.5.3.6 0 .2.2.3.4.4l.8.1c.4 0 .8 0 1-.3.3-.2.4-.4.4-.7 0-.2 0-.4-.2-.6l-.5-.3-1-.3-1.2-.4a2 2 0 01-.9-.7c-.2-.2-.3-.6-.3-1s.1-.7.3-1a2 2 0 011-.8l1.4-.2c.4 0 .8 0 1.1.2.4 0 .6.2.8.4.3.2.4.4.5.6l.2.5-.2.5c-.1.2-.3.2-.5.2l-.4-.1-.2-.4-.5-.6c-.2-.2-.5-.3-.9-.3s-.7.1-.9.3c-.2.1-.3.3-.3.6v.3l.4.3.4.2a17.5 17.5 0 001.8.5l.8.4.6.6.2 1zm5.7-.8V92c0-.3 0-.5.2-.7l.5-.2c.3 0 .4 0 .6.2l.2.7v3.5l.1 1c.1.3.3.5.5.6.2.2.5.3 1 .3s.9-.2 1.1-.5c.3-.3.4-.7.4-1.4V92c0-.3 0-.5.2-.7l.5-.2c.2 0 .4 0 .5.2.2.2.2.4.2.7v3.4l-.1 1.4c-.1.4-.3.7-.6 1-.3.3-.6.4-1 .5a5 5 0 01-2.6 0c-.4 0-.7-.3-1-.5l-.5-1-.2-1.4zm15.2 3H21c-.3 0-.6 0-.7-.2l-.2-.7V92c0-.3 0-.5.2-.7l.7-.2H24.2l.7.3a1.8 1.8 0 01.7 1l.1.5c0 .7-.4 1.3-1 1.6.9.3 1.3.9 1.3 1.7 0 .4 0 .8-.3 1.1-.2.3-.4.6-.8.7a3 3 0 01-.8.2h-1zm-1.7-6.1v1.9H23l.8-.1.5-.4v-.5c0-.4 0-.6-.3-.7a3 3 0 00-1.2-.2h-1.2zm1.5 2.9h-1.5v2.1h1.6c1 0 1.5-.4 1.5-1 0-.4-.2-.7-.4-.9l-1.2-.2z" fill="#809cc9"/><path d="M32.9 92l1.6 4.9L36 92l.2-.5c0-.1 0-.2.2-.3l.4-.1h.3a.7.7 0 01.4.7v.2l-.1.2-.1.3-1.7 4.7a16 16 0 01-.4.9l-.4.3a1 1 0 01-.5.1 1 1 0 01-.5-.1 1 1 0 01-.3-.3l-.2-.4a16.4 16.4 0 01-.2-.5l-1.7-4.7a9.1 9.1 0 00-.2-.5v-.2c0-.2 0-.4.2-.5l.5-.2c.3 0 .4 0 .5.2l.4.8zm15 .3h-3.3v1.8h3c.3 0 .4 0 .5.2l.2.3c0 .2 0 .3-.2.4 0 .1-.2.2-.5.2h-3v2H48c.2 0 .4 0 .5.2l.2.4c0 .2 0 .3-.2.4l-.5.2h-4c-.3 0-.5 0-.6-.2-.2-.2-.2-.4-.2-.7V92v-.5l.4-.3h4.8l.2.5c0 .1 0 .3-.2.4l-.5.1zm8.4 3h-.5v2.3c0 .3 0 .5-.2.7l-.5.2c-.3 0-.5 0-.6-.2l-.2-.7v-5.5l.2-.7.7-.2h3.2l.6.2a1.8 1.8 0 011 1l.2.8c0 .5-.2 1-.5 1.3-.3.3-.8.5-1.4.6l.8.7a6.3 6.3 0 011.2 2.1l-.1.3c0 .1-.1.2-.3.2l-.3.1-.4-.1a1 1 0 01-.3-.3l-.3-.5-.6-1-.6-.8-.5-.4h-.6zm.8-3h-1.3v2H57l.9-.1c.2 0 .4-.2.5-.3l.2-.6c0-.2 0-.4-.2-.5a1 1 0 00-.4-.4 3 3 0 00-1-.1zm14.4 4a2.1 2.1 0 01-1.3 2l-1.6.2c-.7 0-1.3-.1-1.7-.4-.3-.2-.6-.4-.8-.8l-.3-.9a.6.6 0 01.6-.6l.4.1.3.4c0 .3.2.5.3.6l.4.4.8.1c.4 0 .8 0 1-.3.3-.2.4-.4.4-.7 0-.2 0-.4-.2-.6l-.5-.3-1-.3-1.2-.4a2 2 0 01-.9-.7c-.2-.2-.3-.6-.3-1s.1-.7.3-1a2 2 0 011-.8l1.4-.2c.5 0 .8 0 1.2.2.3 0 .5.2.7.4.3.2.4.4.5.6l.2.5-.2.5c-.1.2-.3.2-.5.2l-.4-.1-.2-.4-.5-.6c-.2-.2-.5-.3-.9-.3s-.7.1-.9.3c-.2.1-.3.3-.3.6v.3l.4.3.4.2a17 17 0 001.8.5l.8.4.6.6.2 1zm5.8 1.3V92c0-.3 0-.5.2-.7l.5-.2c.2 0 .4 0 .5.2.2.2.2.4.2.7v5.6c0 .3 0 .5-.2.7l-.5.2c-.2 0-.4 0-.5-.2-.2-.2-.2-.4-.2-.7zM88 91.1c.7 0 1.4.2 1.9.5s1 .7 1.2 1.2c.3.6.4 1.2.4 2 0 .5 0 1-.2 1.5l-.7 1.2a3 3 0 01-1 .7 4 4 0 01-1.6.3c-.5 0-1 0-1.5-.3a3 3 0 01-1.8-2 4.8 4.8 0 010-3l.7-1.1a3 3 0 011.1-.7A4 4 0 0188 91zm2 3.7c0-.5 0-1-.2-1.4-.2-.4-.4-.7-.7-.9a2 2 0 00-1.1-.3 2 2 0 00-.8.2l-.7.5-.4.8-.1 1L86 96l.5.8a1.8 1.8 0 001.4.7c.4 0 .7-.1 1-.3.3-.2.6-.5.8-.9l.2-1.4zm9.1-2.8l2.8 4.2v-4.3l.2-.6.5-.2c.2 0 .4 0 .5.2l.2.6v5.7c0 .6-.3 1-.8 1a1 1 0 01-.4-.1.9.9 0 01-.3-.2 1.7 1.7 0 01-.2-.3l-.2-.3-2.8-4.2v4.2c0 .2 0 .5-.2.6l-.4.2c-.3 0-.4 0-.5-.2-.2-.1-.2-.4-.2-.6v-5.5-.6l.4-.4.4-.1h.4l.2.2.2.3.2.4z" fill="#999"/><path d="M-4.5 102.4h108.3" fill="none" stroke="#809cc9"/></svg>