<svg xmlns="http://www.w3.org/2000/svg" style="-ms-transform:rotate(360deg);-webkit-transform:rotate(360deg)" transform="rotate(360)" viewBox="0 0 256 256"><defs/><path d="M127 256C58.9 255.5-.4 199 0 127 .4 57.8 58-.5 129.1 0 198.3.5 256.6 57.9 256 128.2c.6 69.7-58 128.3-129 127.8zm0 0C58.9 255.5-.4 199 0 127 .4 57.8 58-.5 129.1 0 198.3.5 256.6 57.9 256 128.2c.6 69.7-58 128.3-129 127.8z" fill="#FFF"/><path d="M127.2 239A111.8 111.8 0 0117 127.1c.4-60 50.3-110.5 112-110.1 60 .4 110.5 50.2 110 111.2A111.4 111.4 0 01127.2 239zm0 0A111.8 111.8 0 0117 127.1c.4-60 50.3-110.5 112-110.1 60 .4 110.5 50.2 110 111.2A111.4 111.4 0 01127.2 239z" fill="#49A32B"/><path d="M169.3 128c-.3 5.2-4.9 9.6-9.4 8.9h-.1a9.1 9.1 0 01-9.1-9.2 9.3 9.3 0 019.4-9c5 .1 9.5 4.4 9.2 9.3zm-81.1 51.2h6V193c-13.6 2.3-24.9-1.5-27.6-13a76.5 76.5 0 01-1.8-13c-.3-4.5.3-9.2 0-13.8-1-12.6-2.7-16.9-14.8-17.5V120a22.7 22.7 0 012.6-.4c6.7-.4 9.5-2.4 11-9a74.6 74.6 0 001.1-11c.6-7.3.4-14.6 1.6-21.7C68 67.6 74.4 62.6 84.9 62c3-.2 6 0 9.4 0v14l-4 .3c-8.5-.3-9 2.7-9.6 9.8-.4 4.4.2 9-.1 13.4a107.1 107.1 0 01-1.8 13.3c-1.3 6.3-5.2 11-10.6 15 10.5 6.8 11.7 17.4 12.4 28.2.4 5.8.2 11.6.8 17.4.4 4.4 2.2 5.6 6.8 5.7zm8.8-60.4h.2a9 9 0 019 9.2 8.9 8.9 0 01-9.5 8.9 9 9 0 11.3-18.1zm31.3 0c5.5 0 9.1 3.5 9.1 9s-3.4 9-8.8 9c-5.6 0-9.2-3.4-9.3-8.8a8.7 8.7 0 019-9.2zm65.4-6.9c1.4 5.5 4.3 7.4 10 7.6 1 0 1.9.2 3.2.4v15.7l-2.2.5c-7.7.5-11.2 3.6-12 11.3-.4 5-.4 10-.7 14.9a125.8 125.8 0 01-1.5 16.1c-2 9.7-8 14.6-18 15.2-3.3.2-6.5 0-10 0v-14l5.2-.3c6-.2 8.1-2.1 8.4-8l.7-19.6c.5-9.5 3-17.9 11.8-23.8-5-3.6-9-8-10-13.8-1.3-7-1.7-14.3-2.4-21.5-.4-3.6-.3-7.2-.7-10.8-.4-4-3-5.3-6.6-5.3h-6.6V62.8c16.5-2.8 27.9 2.7 29 18.5.4 6.6.3 13.3.8 20 .1 3.5.7 7.1 1.6 10.6z" fill="#FFF"/><path fill="rgba(0, 0, 0, 0)" d="M0 0h256v256H0z"/></svg>