<svg xmlns="http://www.w3.org/2000/svg" style="-ms-transform:rotate(360deg);-webkit-transform:rotate(360deg)" transform="rotate(360)" viewBox="0 0 32 32"><defs/><path d="M29 17.4a1.4 1.4 0 001-.3 1.5 1.5 0 00.5-1v-.2a1.4 1.4 0 00-1.4-1.3h-3.6V12H29a1.4 1.4 0 001.5-1.4v-.1a1.4 1.4 0 00-.6-1.1 1.5 1.5 0 00-.9-.2h-3.5a3 3 0 00-.3-1 3 3 0 00-1.7-1.5 2.7 2.7 0 00-.7-.2V3a1.4 1.4 0 00-1.3-1.4h-.1A1.4 1.4 0 0020 2.9v3.6h-2.6V2.9a1.4 1.4 0 00-1.3-1.4h-.2a1.4 1.4 0 00-1.3 1.4v3.6H12V3a1.4 1.4 0 00-.4-1 1.4 1.4 0 00-1-.4h-.1a1.4 1.4 0 00-1.3 1.4v3.6a3 3 0 00-2.5 2 2.9 2.9 0 00-.2.7H3a1.4 1.4 0 00-1.4 1.3v.1a1.4 1.4 0 00.6 1 1.5 1.5 0 00.9.4h3.5v2.6H2.9a1.4 1.4 0 00-1.4 1.3v.2a1.4 1.4 0 001.4 1.3h3.6v2.7H3.1a1.6 1.6 0 00-1 .2 1.4 1.4 0 00-.6 1.1v.1a1.4 1.4 0 001.4 1.3h3.6a2.8 2.8 0 002 2.5 2.7 2.7 0 00.7.2V29a1.4 1.4 0 102.8 0v-3.6h2.6V29a1.4 1.4 0 001.3 1.5h.2a1.4 1.4 0 001.3-1.4v-3.6H20v3.6a1.4 1.4 0 001.4 1.4h.1a1.4 1.4 0 001.2-.7 1.6 1.6 0 00.1-.9v-3.4a2.7 2.7 0 00.7-.2 3 3 0 001.9-1.8 2.8 2.8 0 000-.7h3.7a1.4 1.4 0 001.4-1.3v-.1a1.4 1.4 0 00-1.4-1.4h-3.6v-2.6z" fill="#c5c5c5" opacity=".3"/><path d="M10.5 2a1 1 0 011 .9v3.3H9.7V3a1 1 0 01.8-.9zM16 2a1 1 0 01.9.9v3.3h-1.8V3a1 1 0 01.8-.9zM21.4 2a1 1 0 011 .9v3.3h-1.9V3a1 1 0 01.9-.9zM2 10.5a1 1 0 01.9-.8h3.3v1.8H3a1 1 0 01-.6-.2 1 1 0 01-.4-.7zM25.8 9.7H29a1 1 0 01.6.1 1 1 0 01.4.7 1 1 0 01-.3.7 1 1 0 01-.7.3h-3.2V9.7zM2 16a1 1 0 01.9-.9h3.3v1.8H3a1 1 0 01-.9-.8zM25.8 15.1H29a1 1 0 01.9.8v.2a1 1 0 01-.3.6 1 1 0 01-.7.2h-3.2v-1.8zM2.4 20.7a1.1 1.1 0 01.7-.2h3.1v1.8H3a1 1 0 01-.9-.8v-.1a1 1 0 01.4-.7zM25.8 20.5H29a1 1 0 01.9.9 1 1 0 01-.9 1h-3.3v-1.9zM9.7 25.8h1.8V29a1 1 0 01-.3.7 1 1 0 01-.6.3 1 1 0 01-1-.9v-3.3zM15.1 25.8h1.8V29a1 1 0 01-.8.9h-.2a1 1 0 01-.6-.3 1 1 0 01-.2-.7v-3.2zM20.5 29.1v-3.3h1.8v3.1a1.2 1.2 0 010 .6 1 1 0 01-.8.5h-.1a1 1 0 01-.9-.9zM24.7 8.3a2.4 2.4 0 00-1.4-1.2 3.2 3.2 0 00-1-.1h-13a2.4 2.4 0 00-2.1 1.6A3.6 3.6 0 007 10v12.5a2.7 2.7 0 00.3 1.3 2.4 2.4 0 001.4 1.2 3.8 3.8 0 001.2.1h12.2a3.8 3.8 0 001.2-.1 2.4 2.4 0 001.6-1.6 3.8 3.8 0 00.1-1.2V9.6a2.7 2.7 0 00-.3-1.3z" fill="#1a348f"/><path d="M7.5 8.3v-.2h7.1a.2.2 0 01.2.1v.2l-.4.1h-.1a10.3 10.3 0 00-1.1 0 2.2 2.2 0 00-1 .3.4.4 0 00-.2.4 4 4 0 00.4 1.4l1.8 4.2.7 1.4 1.8 4.5.2.5.8-2 1.2-3.1.8-2.3.2-.5a17 17 0 001.1-4A.6.6 0 0021 9a1.2 1.2 0 00-.6-.3 7.7 7.7 0 00-.9-.2h-.9a.3.3 0 010-.3l3.8-.1h1.3a3.1 3.1 0 01.9 0v.2a.6.6 0 010 .2 2.4 2.4 0 01-.6.1 3.6 3.6 0 00-1.2.3 1.8 1.8 0 00-.5.7L19 17.4l-2 5.4-.4 1a.5.5 0 01-.3.1 1.4 1.4 0 01-.3 0l-2.3-5.7-3.6-8.3a3.2 3.2 0 00-.6-.9A5.5 5.5 0 008 8.6a4.3 4.3 0 01-.5-.1.3.3 0 01-.1-.2z" fill="#c5c2ff"/><path fill="rgba(0, 0, 0, 0)" d="M0 0h32v32H0z"/></svg>