<svg xmlns="http://www.w3.org/2000/svg" style="-ms-transform:rotate(360deg);-webkit-transform:rotate(360deg)" transform="rotate(360)" viewBox="0 0 512 512"><defs/><path d="M378 424.2H134a47.6 47.6 0 01-47.5-47.4V132.7A47.6 47.6 0 01134 85.2h244a47.6 47.6 0 0147.5 47.5v244a47.6 47.6 0 01-47.5 47.5zm-39.8-253H177.9v160.3h160.3V171.2zM182.4 0h-29.9v71.8h29.9V0zm59.8 0h-29.8v71.8h29.8V0zm60 0h-30v71.8h30V0zM362 0H332v71.8H362V0zM73 329.7H0v29.8h73v-29.8zm0-59.9H0v29.9h73v-29.9zm0-59.9H0v29.9h73v-29.9zm0-59.9H0V180h73V150zm439 179.7h-73v29.8h73v-29.8zm0-59.9h-73v29.9h73v-29.9zm0-59.9h-73v29.9h73v-29.9zm0-59.9h-73V180h73V150zM182.4 440.2h-29.9V512h29.9v-71.8zm59.8 0h-29.8V512h29.8v-71.8zm60 0h-30V512h30v-71.8zm59.8 0H332V512H362v-71.8zM151.6 129a16 16 0 10-32 0 16 16 0 0032 0z" fill="#626262"/><path fill="rgba(0, 0, 0, 0)" d="M0 0h512v512H0z"/></svg>