<svg xmlns="http://www.w3.org/2000/svg" viewBox="0 0 128 128"><defs/><path d="M75.8 113.7l4.6-5.5.8-1 3-3.2a70.6 70.6 0 006-7.4c2.8-3.7 4.6-6.5 4.3-11.3-.1-2.5-.2-4.2-1.9-6.2a66.7 66.7 0 00-4.7-4.8L81.6 68c-2.5-2.5-5.6-9-5.6-9A41.4 41.4 0 0172.8 48l-7.1-36.8H45.2l-10 46.4-8.9-46.4h-24L24 116.7h20.3l10.2-45.6 9 45.6h9.4z" fill="#2788b5"/><path d="M118.3 17.6c2.2-2.5 4-4.5 5.4-6.3H91.2c-1.9 2.4-5.8 7.2-8 11.4-3 5.6-5.4 9.8-5.7 20l.1 3.3a36 36 0 003.5 12.1 43.4 43.4 0 003.6 5.6l.7.9c3.5 4 8.7 8.4 11 11.3 2.8 3.4 2.9 6.5 3 9 .5 6.7-2.2 10.7-5 14.6-4.4 6-6 7-9.4 11l-5.3 6.2h33.5a90.3 90.3 0 007-11.4c3-5.6 5.4-9.8 5.6-20l-.1-3.3c0-4.9-3.5-12-3.5-12a44.3 44.3 0 00-3.6-5.7l-.6-.8c-3.5-4-8.8-8.5-11.2-11.4-2.7-3.4-2.8-6.5-3-9-.4-6.6 2.3-10.7 5.2-14.6 4.4-6 6-7 9.3-11z" fill="#fa930d"/></svg>