<svg xmlns="http://www.w3.org/2000/svg" viewBox="0 0 512 512"><path d="m0 290.5 72.9-3.9v34.1L0 316.1zm331 50.3v-16.4c-19.5 26.1-65 13.6-61-20.4l12.8-45.4c5.4-21.2 14.2-22.1 46.4-22.1h1.8V62.9c0-10.8-8.8-19.6-19.6-19.6H152.6A19.6 19.6 0 0 0 133 63v386.2c0 10.8 8.8 19.6 19.6 19.6h78zm48-264.5h-39.4v62H379zm0 160.2v-62h-39.4v62H379zm81-142.3-73-4v34.2l73-4.6zm0 98.1-73-3.9v34.1l73-4.5zM0 414.3l72.9 4.6v-34.1L0 388.7zm81.6-177.8h44v-62h-44zm0 98.1h44v-62h-44zm0-196.3h44v-62h-44zm0 294.5h44v-62h-44zM0 218l72.9 4.5v-34L0 192.2zm0-98.2 72.9 4.6V90.3L0 94.2zm309 132.1c-4.3.8-4.4 6.6-5.9 12.2l-12.3 43.2c-.7 6.3 6.3 12.7 18 9 8.7-2.7 8.2-20.8 28.3-32 9.2-5.1 41.2-4.7 68.6-4.7L269.5 453.2c-5.7 6.5-7.5 14.5 2.5 14.5h228.3a108.6 108.6 0 0 0 11.7-45.3c0-13.8-10.6-18-23.2-11.7 0 0-7.3 37.5-61.6 37.5-29 .5-66.2 0-66.2 0l133.5-170.5c2.5-3.8 9.2-10.4 9.1-12.1-.1-3.8-5-7.4-13-7.4H322.9c-4.5 0-6-7.8-14-6.3z"/></svg>